<svg xmlns="http://www.w3.org/2000/svg" viewBox="0 0 594.58 170.45"><defs><style>.cls-1{fill:#231f20;}</style></defs><g id="Layer_2" data-name="Layer 2"><g id="Layer_1-2" data-name="Layer 1"><path class="cls-1" d="M1,131.87C9.52,119.63,12.07,113,12.07,97V33.14C11.22,21.58,8.33,16.48,0,8.16V7.82H34.67L75.11,98.9,114.2,7.82h33.64v.34c-9.17,9.68-12.06,14.78-12.06,29.74V99.07c0,15.13,1.87,21.41,6.8,32.8v.34H104.51v-.34c5.27-11.05,6.8-17.84,6.8-32.8V25.49l-44.52,103H62.54L16,25,16.48,97c0,15.64,3.23,22.77,13.09,34.84v.34H1Z"/><path class="cls-1" d="M149.7,73.81c9.2-21.38,35.84-32.12,58.16-22.52S240.7,87.63,231.49,109c-9.13,21.23-35.55,31.88-58,22.21C150.83,121.48,140.56,95,149.7,73.81Zm60.72,26.13c8.73-20.29,9.83-39.61-3.9-45.52S179.66,62.66,170.93,83c-8.8,20.45-10.08,39.32,3.81,45.3C188.48,134.16,201.62,120.39,210.42,99.94Z"/><path class="cls-1" d="M240.62,132.21v-.34c2.72-8.84,3.91-16.31,3.91-31.27V80.89c0-11.73-3.06-18.35-8-24.3v-.34L265.6,46.9V63.56l.68.17c6-8.16,14.44-16,27.87-16,15.46,0,24.64,9.18,24.64,24.13v28.55c0,14.62.51,22.94,4.08,31.44v.34H293.13v-.34c3.23-8.67,3.91-17.16,3.91-31.1v-26c0-8.67-3.74-15.63-13.77-15.63-6.79,0-12.91,3.57-17,8.49v33c0,14.45.68,22.6,3.91,31.27v.34Z"/><path class="cls-1" d="M360.42,134.76c-19.71,0-32.29-16.65-32.29-39.77,0-25.15,15.13-47.24,44.52-47.24A50.28,50.28,0,0,1,388.8,50.3V34c0-12.07-3.06-18.7-8-24.3V9.35L410.55,0V96.18c0,21.42,2.72,26,8.16,31.44V128l-29.23,6.46V117.6h-.34A32.63,32.63,0,0,1,360.42,134.76ZM388.8,114.2V69.33c-2.55-13.59-9.18-18.52-16.65-18.52-13.09,0-21.59,13.93-21.59,37.9,0,21.24,7.14,33.47,20.74,33.47A22.53,22.53,0,0,0,388.8,114.2Z"/><path class="cls-1" d="M464.24,122.52c-5.26,6.63-13.42,12.24-24.3,12.24-10.19,0-18.52-4.76-18.52-15.64,0-17.84,23.79-25.66,42.31-29.22v-15c0-9.51-3.73-14.61-16-14.61a41.71,41.71,0,0,0-22.26,6.28l-.85-1.18a46.2,46.2,0,0,1,36.7-17.68c17.68,0,24.14,9.35,24.14,21.24v46.23c0,4.07,1.7,7.47,7,7.47a12.3,12.3,0,0,0,7.48-2.72l.34.51c-2.72,5.61-7.82,13.94-20,13.94C470.7,134.42,465.43,129.32,464.24,122.52Zm-.51-2.89V93C451,96.18,441,102.3,441,112.16c0,6.63,4.25,10.87,11.9,10.87A18.37,18.37,0,0,0,463.73,119.63Z"/><path class="cls-1" d="M527.63,136.29,503,73.07c-5.43-13.42-7.81-18.18-11.55-22.43V50.3h34.5v.34c-2.55,3.57-3.74,12.92.51,24l12.4,32.63,12.92-33c4.07-10.36,1.19-19.88-2-23.62V50.3h20.39v.34c-5.78,6.29-9.69,11.56-14.11,23.11L531.19,136c-11.38,27.19-20.39,31.78-34,34.5l-.17-19C504.68,151.92,521.85,151.58,527.63,136.29Z"/><path class="cls-1" d="M569.68,62.86a12.82,12.82,0,0,1,7.22-8.4c8.73-3.85,17.68,3,17.68,11.64a12.67,12.67,0,1,1-24.9-3.24Zm0,54.21a12.82,12.82,0,0,1,7.22-8.4c8.73-3.86,17.68,3,17.68,11.64a12.67,12.67,0,1,1-24.9-3.24Z"/></g></g></svg>